<mxfile host="app.diagrams.net" modified="2021-03-29T12:53:46.235Z" agent="5.0 (Windows)" etag="3XwSQSHFyrUO9PI998__" version="14.5.3" type="github">
  <diagram id="B1ylj1akvkJgGZb7Wtry" name="Page-1">
    <mxGraphModel dx="1662" dy="763" grid="1" gridSize="10" guides="1" tooltips="1" connect="1" arrows="1" fold="1" page="1" pageScale="1" pageWidth="850" pageHeight="1100" math="0" shadow="0">
      <root>
        <mxCell id="0" />
        <mxCell id="1" parent="0" />
        <mxCell id="F2aWLSE53vhr_MozMiDo-1" value="File" style="swimlane;fontStyle=1;align=center;verticalAlign=top;childLayout=stackLayout;horizontal=1;startSize=26;horizontalStack=0;resizeParent=1;resizeParentMax=0;resizeLast=0;collapsible=1;marginBottom=0;" vertex="1" parent="1">
          <mxGeometry x="710" y="50" width="230" height="260" as="geometry" />
        </mxCell>
        <mxCell id="F2aWLSE53vhr_MozMiDo-3" value="" style="line;strokeWidth=1;fillColor=none;align=left;verticalAlign=middle;spacingTop=-1;spacingLeft=3;spacingRight=3;rotatable=0;labelPosition=right;points=[];portConstraint=eastwest;" vertex="1" parent="F2aWLSE53vhr_MozMiDo-1">
          <mxGeometry y="26" width="230" height="8" as="geometry" />
        </mxCell>
        <mxCell id="F2aWLSE53vhr_MozMiDo-4" value="?" style="text;strokeColor=none;fillColor=none;align=left;verticalAlign=top;spacingLeft=4;spacingRight=4;overflow=hidden;rotatable=0;points=[[0,0.5],[1,0.5]];portConstraint=eastwest;" vertex="1" parent="F2aWLSE53vhr_MozMiDo-1">
          <mxGeometry y="34" width="230" height="102" as="geometry" />
        </mxCell>
        <mxCell id="F2aWLSE53vhr_MozMiDo-9" value="- username: string&#xa;-age: int&#xa;-account_type:string&#xa;&#xa;" style="text;strokeColor=none;fillColor=none;align=left;verticalAlign=top;spacingLeft=4;spacingRight=4;overflow=hidden;rotatable=0;points=[[0,0.5],[1,0.5]];portConstraint=eastwest;" vertex="1" parent="F2aWLSE53vhr_MozMiDo-1">
          <mxGeometry y="136" width="230" height="124" as="geometry" />
        </mxCell>
        <mxCell id="F2aWLSE53vhr_MozMiDo-5" value="User" style="swimlane;fontStyle=1;align=center;verticalAlign=top;childLayout=stackLayout;horizontal=1;startSize=26;horizontalStack=0;resizeParent=1;resizeParentMax=0;resizeLast=0;collapsible=1;marginBottom=0;" vertex="1" parent="1">
          <mxGeometry x="350" y="50" width="230" height="260" as="geometry" />
        </mxCell>
        <mxCell id="F2aWLSE53vhr_MozMiDo-6" value="- username: string&#xa;-age: int&#xa;-account_type:string&#xa;&#xa;" style="text;strokeColor=none;fillColor=none;align=left;verticalAlign=top;spacingLeft=4;spacingRight=4;overflow=hidden;rotatable=0;points=[[0,0.5],[1,0.5]];portConstraint=eastwest;" vertex="1" parent="F2aWLSE53vhr_MozMiDo-5">
          <mxGeometry y="26" width="230" height="124" as="geometry" />
        </mxCell>
        <mxCell id="F2aWLSE53vhr_MozMiDo-7" value="" style="line;strokeWidth=1;fillColor=none;align=left;verticalAlign=middle;spacingTop=-1;spacingLeft=3;spacingRight=3;rotatable=0;labelPosition=right;points=[];portConstraint=eastwest;" vertex="1" parent="F2aWLSE53vhr_MozMiDo-5">
          <mxGeometry y="150" width="230" height="8" as="geometry" />
        </mxCell>
        <mxCell id="F2aWLSE53vhr_MozMiDo-8" value="+ setUsername(): void&#xa;+ getUsername():string&#xa;" style="text;strokeColor=none;fillColor=none;align=left;verticalAlign=top;spacingLeft=4;spacingRight=4;overflow=hidden;rotatable=0;points=[[0,0.5],[1,0.5]];portConstraint=eastwest;" vertex="1" parent="F2aWLSE53vhr_MozMiDo-5">
          <mxGeometry y="158" width="230" height="102" as="geometry" />
        </mxCell>
      </root>
    </mxGraphModel>
  </diagram>
</mxfile>
